**ABCDEFGHIJKLMNOPQRSTUVWXYZabcdefghijklmnopqrstuvwxyz**************************
**PARASOLID !"#$%&'()*+,-./:;<=>?@[\]^_`{|}~0123456789**************************
**PART1;
MC=AMD64;
MC_MODEL=Intel64 Family 6 Model 165 Stepping 5, GenuineIntel;
MC_ID=unknown;
OS=Windows_NT;
OS_RELEASE=unknown;
FRU=Parasolid Version 31.1, build 290,  3- 9-2020;
APPL=SOLIDWORKS 2020-2020196;
SITE=;
USER=unknown;
FORMAT=text;
GUISE=transmit;
KEY=makeProjectedPlanarWire;
FILE=makeProjectedPlanarWire.x_t;
DATE=Mon Apr  7 12:01:28 2025;
**PART2;
SCH=SCH_3101290_31100;
USFLD_SIZE=0;
**PART3;
**END_OF_HEADER*****************************************************************
T51 : TRANSMIT FILE created by modeller version 310129023 SCH_3101290_31100_1300
6222 0 12 34 CCCCCCI4 mesh1006 0 I8 polyline1008 0 CCCCCCCDI5 owner1040 0 CCCCCC
I13 boundary_mesh1006 0 I17 boundary_polyline1008 0 CCCA16 index_map_offset0 0 1
 dA9 index_map82 0 A17 node_id_index_map82 0 A20 schema_embedding_map82 0 A5 chi
ld12 0 A14 lowest_node_id0 0 1 dA16 mesh_offset_data206 0 Z1 45 0 2 0 0 0 0 0 0
 1e3 1e-8 0 3 0 1 0 3 1 4 5 6 7 0 0 8 9 10 0 0 0 0 0 0 0 70 11 CI9 list_type0 0
 1 uI10 notransmit0 0 1 lCCCDCCDI12 finger_index0 0 1 dI12 finger_block1012 0 CZ
2 0 4 T1 0 0 2 20 1 11 11 13 255 4 42 0 1 0 12 0 0 8 12 50 255 5 3 0 12 0 0 0 +0
 0 0 0 1 0 0 0 1 30 255 6 23 0 9 13 0 0 +-.055 0 -.045 1541976423090495e-31 0 1
 29 255 7 35 0 10 14 0 -.055 0 -.045 19 8 CCCCCCCA5 owner12 0 Z8 41 0 1 0 0 4 V0
 16 255 9 21 0 ?15 0 16 6 0 0 1 18 255 10 33 0 17 0 18 7 ?1 17 255 17 0 0 0 0 10
 19 20 0 21 +18 18 30 0 22 10 23 14 ?1 17 22 0 24 21 25 18 26 16 0 15 +18 23 27
 0 25 18 27 28 ?1 29 14 32 0 18 28 7 -.055 0 .045 29 28 29 0 23 29 14 .055 0 .04
5 29 29 26 0 27 0 28 .055 0 -.045 18 27 24 0 19 23 0 29 ?1 17 19 0 24 25 21 27 1
7 20 0 30 -15 255 24 8 0 19 12 0 17 25 0 24 22 19 23 30 31 0 26 +17 21 0 24 19 2
2 10 15 9 0 0 -16 20 12 0 ?17 31 32 33 0 0 1 17 30 0 0 0 0 27 25 31 0 0 -16 31 1
5 0 ?25 16 20 34 0 0 1 16 16 18 0 ?22 9 31 13 0 0 1 30 34 17 0 31 33 13 0 +.055
 0 -.045 1541976423090495e-31 0 1 30 33 14 0 20 35 34 0 +.055 0 -.045 -1 0 12616
17073437678e-31 30 13 20 0 16 34 6 0 +.055 0 .045 -1 0 1261617073437678e-31 31 2
55 35 11 0 32 0 33 0 +0 0 0 0 -1 0 0 0 -1 .034 16 32 9 0 ?36 20 0 35 0 0 1 17 36
 0 0 0 0 0 37 32 0 0 +17 37 0 38 37 37 0 36 32 0 0 -15 38 7 0 37 12 24 14 255 12
 1 39 ?0 0 38 4 5 -0 0 0 0 4 81 255 1 39 45 40 12 41 0 0 0 42 80 255 1 40 43 44
 9000 1 1 1 1 1 1 1 1 0 FFFFTFTFFFFFFF1 81 1 41 5 45 12 0 39 0 0 46 82 255 1 42
 2030764265 80 1 45 0 47 8001 0 0 0 0 3 5 0 0 0 FFFFTFTFFFFFFF2 83 255 3 46 .792
156862745098 .819607843137255 .933333333333333 79 255 15 47 SDL/TYSA_COLOUR79 14
 44 SWEntUnchanged17 15 0 0 0 0 18 21 9 0 0 +17 26 0 0 0 0 23 22 16 0 0 -74 4 CI
16 index_map_offset0 0 1 dCCZ20 11 2 0 0 41 39 0 0 0 0 0 0 0 0 0 0 0 0 0 0 0 0 0
 0 1 0 
