G04*
G04 #@! TF.GenerationSoftware,Altium Limited,Altium Designer,24.10.1 (45)*
G04*
G04 Layer_Color=8421504*
%FSLAX44Y44*%
%MOMM*%
G71*
G04*
G04 #@! TF.SameCoordinates,18B26EA7-4F74-4CB2-AD54-755A6D8BF582*
G04*
G04*
G04 #@! TF.FilePolarity,Positive*
G04*
G01*
G75*
%ADD15R,1.3000X1.4000*%
%ADD16R,1.1000X2.8000*%
%ADD17R,1.1000X2.6000*%
D15*
X546000Y490000D02*
D03*
X530000D02*
D03*
X517000Y360000D02*
D03*
X533000D02*
D03*
X517000Y325000D02*
D03*
X533000D02*
D03*
X546000Y450000D02*
D03*
X530000D02*
D03*
D16*
X735000Y583000D02*
D03*
X320000Y229000D02*
D03*
D17*
X715000Y584000D02*
D03*
X695000D02*
D03*
X675000D02*
D03*
X654999D02*
D03*
X635000D02*
D03*
X615000D02*
D03*
X595000D02*
D03*
Y430000D02*
D03*
X615000D02*
D03*
X635000D02*
D03*
X654999D02*
D03*
X675000D02*
D03*
X695000D02*
D03*
X715000D02*
D03*
X735000D02*
D03*
X320000Y382000D02*
D03*
X340000D02*
D03*
X360000D02*
D03*
X380000D02*
D03*
X400000D02*
D03*
X420000D02*
D03*
X440000D02*
D03*
X460000D02*
D03*
Y228000D02*
D03*
X440000D02*
D03*
X420000D02*
D03*
X400000D02*
D03*
X380000D02*
D03*
X360000D02*
D03*
X340000D02*
D03*
M02*
