G04*
G04 #@! TF.GenerationSoftware,Altium Limited,Altium Designer,24.10.1 (45)*
G04*
G04 Layer_Color=2752767*
%FSLAX44Y44*%
%MOMM*%
G71*
G04*
G04 #@! TF.SameCoordinates,18B26EA7-4F74-4CB2-AD54-755A6D8BF582*
G04*
G04*
G04 #@! TF.FilePolarity,Positive*
G04*
G01*
G75*
%ADD39C,0.1270*%
%ADD40C,0.1693*%
D39*
X240122Y659721D02*
Y669881D01*
X250282D01*
Y659721D01*
X240122D01*
Y685121D02*
Y695281D01*
X250282D01*
Y685121D01*
X240122D01*
X265522Y659721D02*
Y669881D01*
X275682D01*
Y659721D01*
X265522D01*
Y685121D02*
Y695281D01*
X275682D01*
Y685121D01*
X265522D01*
X290922Y659721D02*
Y669881D01*
X301082D01*
Y659721D01*
X290922D01*
Y685121D02*
Y695281D01*
X301082D01*
Y685121D01*
X290922D01*
X316322Y659721D02*
Y669881D01*
X326482D01*
Y659721D01*
X316322D01*
Y685121D02*
Y695281D01*
X326482D01*
Y685121D01*
X316322D01*
X341722Y659721D02*
Y669881D01*
X351882D01*
Y659721D01*
X341722D01*
Y685121D02*
Y695281D01*
X351882D01*
Y685121D01*
X341722D01*
X367122Y659721D02*
Y669881D01*
X377282D01*
Y659721D01*
X367122D01*
Y685121D02*
Y695281D01*
X377282D01*
Y685121D01*
X367122D01*
X392522Y659721D02*
Y669881D01*
X402682D01*
Y659721D01*
X392522D01*
Y685121D02*
Y695281D01*
X402682D01*
Y685121D01*
X392522D01*
X417922Y659721D02*
Y669881D01*
X428082D01*
Y659721D01*
X417922D01*
Y685121D02*
Y695281D01*
X428082D01*
Y685121D01*
X417922D01*
X443322Y659721D02*
Y669881D01*
X453482D01*
Y659721D01*
X443322D01*
Y685121D02*
Y695281D01*
X453482D01*
Y685121D01*
X443322D01*
X468722Y659721D02*
Y669881D01*
X478882D01*
Y659721D01*
X468722D01*
Y685121D02*
Y695281D01*
X478882D01*
Y685121D01*
X468722D01*
X494122Y659721D02*
Y669881D01*
X504282D01*
Y659721D01*
X494122D01*
Y685121D02*
Y695281D01*
X504282D01*
Y685121D01*
X494122D01*
X519522Y659721D02*
Y669881D01*
X529682D01*
Y659721D01*
X519522D01*
Y685121D02*
Y695281D01*
X529682D01*
Y685121D01*
X519522D01*
X544922Y659721D02*
Y669881D01*
X555082D01*
Y659721D01*
X544922D01*
Y685121D02*
Y695281D01*
X555082D01*
Y685121D01*
X544922D01*
X570322Y659721D02*
Y669881D01*
X580482D01*
Y659721D01*
X570322D01*
Y685121D02*
Y695281D01*
X580482D01*
Y685121D01*
X570322D01*
X595722Y659721D02*
Y669881D01*
X605882D01*
Y659721D01*
X595722D01*
Y685121D02*
Y695281D01*
X605882D01*
Y685121D01*
X595722D01*
X621122Y659721D02*
Y669881D01*
X631282D01*
Y659721D01*
X621122D01*
Y685121D02*
Y695281D01*
X631282D01*
Y685121D01*
X621122D01*
X722722D02*
Y695281D01*
X732882D01*
Y685121D01*
X722722D01*
Y659721D02*
Y669881D01*
X732882D01*
Y659721D01*
X722722D01*
X697322Y685121D02*
Y695281D01*
X707482D01*
Y685121D01*
X697322D01*
Y659721D02*
Y669881D01*
X707482D01*
Y659721D01*
X697322D01*
X671922Y685121D02*
Y695281D01*
X682082D01*
Y685121D01*
X671922D01*
Y659721D02*
Y669881D01*
X682082D01*
Y659721D01*
X671922D01*
X646522Y685121D02*
Y695281D01*
X656682D01*
Y685121D01*
X646522D01*
Y659721D02*
Y669881D01*
X656682D01*
Y659721D01*
X646522D01*
X525000Y242220D02*
X519920Y252380D01*
X530080D01*
X525000Y242220D01*
Y267620D02*
X519920Y277780D01*
X530080D01*
X525000Y267620D01*
X542700Y529920D02*
X537620Y540080D01*
X547780D01*
X542700Y529920D01*
X517300D02*
X512220Y540080D01*
X522380D01*
X517300Y529920D01*
X462500Y182420D02*
X465040Y184960D01*
X467580D01*
X465040Y187500D01*
X467580Y190040D01*
X465040D01*
X462500Y192580D01*
X459960Y190040D01*
X457420D01*
X459960Y187500D01*
X457420Y184960D01*
X459960D01*
X462500Y182420D01*
X500000Y197420D02*
X502540Y199960D01*
X505080D01*
X502540Y202500D01*
X505080Y205040D01*
X502540D01*
X500000Y207580D01*
X497460Y205040D01*
X494920D01*
X497460Y202500D01*
X494920Y199960D01*
X497460D01*
X500000Y197420D01*
X625000Y379920D02*
X627540Y382460D01*
X630080D01*
X627540Y385000D01*
X630080Y387540D01*
X627540D01*
X625000Y390080D01*
X622460Y387540D01*
X619920D01*
X622460Y385000D01*
X619920Y382460D01*
X622460D01*
X625000Y379920D01*
X672500Y389920D02*
X675040Y392460D01*
X677580D01*
X675040Y395000D01*
X677580Y397540D01*
X675040D01*
X672500Y400080D01*
X669960Y397540D01*
X667420D01*
X669960Y395000D01*
X667420Y392460D01*
X669960D01*
X672500Y389920D01*
X662500Y452420D02*
X665040Y454960D01*
X667580D01*
X665040Y457500D01*
X667580Y460040D01*
X665040D01*
X662500Y462580D01*
X659960Y460040D01*
X657420D01*
X659960Y457500D01*
X657420Y454960D01*
X659960D01*
X662500Y452420D01*
X645000Y467420D02*
X647540Y469960D01*
X650080D01*
X647540Y472500D01*
X650080Y475040D01*
X647540D01*
X645000Y477580D01*
X642460Y475040D01*
X639920D01*
X642460Y472500D01*
X639920Y469960D01*
X642460D01*
X645000Y467420D01*
X697500Y612420D02*
X700040Y614960D01*
X702580D01*
X700040Y617500D01*
X702580Y620040D01*
X700040D01*
X697500Y622580D01*
X694960Y620040D01*
X692420D01*
X694960Y617500D01*
X692420Y614960D01*
X694960D01*
X697500Y612420D01*
X677500D02*
X680040Y614960D01*
X682580D01*
X680040Y617500D01*
X682580Y620040D01*
X680040D01*
X677500Y622580D01*
X674960Y620040D01*
X672420D01*
X674960Y617500D01*
X672420Y614960D01*
X674960D01*
X677500Y612420D01*
X655000D02*
X657540Y614960D01*
X660080D01*
X657540Y617500D01*
X660080Y620040D01*
X657540D01*
X655000Y622580D01*
X652460Y620040D01*
X649920D01*
X652460Y617500D01*
X649920Y614960D01*
X652460D01*
X655000Y612420D01*
X632500D02*
X635040Y614960D01*
X637580D01*
X635040Y617500D01*
X637580Y620040D01*
X635040D01*
X632500Y622580D01*
X629960Y620040D01*
X627420D01*
X629960Y617500D01*
X627420Y614960D01*
X629960D01*
X632500Y612420D01*
D40*
X785080Y200000D02*
G03*
X785080Y200000I-5080J0D01*
G01*
Y690000D02*
G03*
X785080Y690000I-5080J0D01*
G01*
X205080Y200000D02*
G03*
X205080Y200000I-5080J0D01*
G01*
Y690000D02*
G03*
X205080Y690000I-5080J0D01*
G01*
M02*
