G04*
G04 #@! TF.GenerationSoftware,Altium Limited,Altium Designer,24.10.1 (45)*
G04*
G04 Layer_Physical_Order=1*
G04 Layer_Color=255*
%FSLAX44Y44*%
%MOMM*%
G71*
G04*
G04 #@! TF.SameCoordinates,18B26EA7-4F74-4CB2-AD54-755A6D8BF582*
G04*
G04*
G04 #@! TF.FilePolarity,Positive*
G04*
G01*
G75*
%ADD14C,0.2540*%
%ADD15R,1.3000X1.4000*%
%ADD16R,1.1000X2.8000*%
%ADD17R,1.1000X2.6000*%
%ADD28C,0.5000*%
%ADD29C,1.0000*%
%ADD30R,1.5000X1.5000*%
%ADD31C,1.5000*%
G04:AMPARAMS|DCode=32|XSize=1.52mm|YSize=1.52mm|CornerRadius=0.38mm|HoleSize=0mm|Usage=FLASHONLY|Rotation=90.000|XOffset=0mm|YOffset=0mm|HoleType=Round|Shape=RoundedRectangle|*
%AMROUNDEDRECTD32*
21,1,1.5200,0.7600,0,0,90.0*
21,1,0.7600,1.5200,0,0,90.0*
1,1,0.7600,0.3800,0.3800*
1,1,0.7600,0.3800,-0.3800*
1,1,0.7600,-0.3800,-0.3800*
1,1,0.7600,-0.3800,0.3800*
%
%ADD32ROUNDEDRECTD32*%
%ADD33C,1.5200*%
G04:AMPARAMS|DCode=34|XSize=1.52mm|YSize=1.52mm|CornerRadius=0.38mm|HoleSize=0mm|Usage=FLASHONLY|Rotation=180.000|XOffset=0mm|YOffset=0mm|HoleType=Round|Shape=RoundedRectangle|*
%AMROUNDEDRECTD34*
21,1,1.5200,0.7600,0,0,180.0*
21,1,0.7600,1.5200,0,0,180.0*
1,1,0.7600,-0.3800,0.3800*
1,1,0.7600,0.3800,0.3800*
1,1,0.7600,0.3800,-0.3800*
1,1,0.7600,-0.3800,-0.3800*
%
%ADD34ROUNDEDRECTD34*%
%ADD35C,6.0000*%
%ADD36C,1.2700*%
G36*
X535000Y560000D02*
Y543170D01*
X534718Y542982D01*
X533437Y541063D01*
X532986Y538800D01*
Y531200D01*
X533437Y528937D01*
X534718Y527018D01*
X535000Y526830D01*
Y499540D01*
X524496D01*
X531768Y492268D01*
X529500Y490000D01*
X531768Y487732D01*
X524496Y480460D01*
X535000D01*
Y459540D01*
X524496D01*
X531768Y452268D01*
X529500Y450000D01*
X531768Y447732D01*
X524496Y440460D01*
X535000D01*
Y437500D01*
X475000D01*
X472500Y440000D01*
Y572500D01*
X517500D01*
X520000Y575000D01*
X535000Y560000D01*
D02*
G37*
G36*
X360000Y465000D02*
Y445000D01*
X330000Y425000D01*
Y397637D01*
X328040Y397540D01*
X328000Y397540D01*
X315496D01*
X321768Y391268D01*
X318232Y387732D01*
X311960Y394004D01*
Y369995D01*
X318232Y376268D01*
X321768Y372732D01*
X315496Y366460D01*
X328000D01*
X328040Y366460D01*
X330000Y366363D01*
Y347290D01*
X450000D01*
Y366363D01*
X451960Y366460D01*
X452000Y366460D01*
X464504D01*
X458232Y372732D01*
X461768Y376268D01*
X468040Y369995D01*
Y394004D01*
X461768Y387732D01*
X458232Y391268D01*
X464504Y397540D01*
X452000D01*
X451960Y397540D01*
X450000Y397637D01*
Y432500D01*
X540000D01*
Y440460D01*
X551505D01*
X544232Y447732D01*
X546500Y450000D01*
X544232Y452268D01*
X551505Y459540D01*
X540000D01*
Y480460D01*
X551505D01*
X544232Y487732D01*
X546500Y490000D01*
X544232Y492268D01*
X551504Y499540D01*
X540000D01*
Y510000D01*
X575000D01*
Y525000D01*
X725000D01*
Y566363D01*
X726960Y566460D01*
X727000Y566460D01*
X739504D01*
X733232Y572732D01*
X736768Y576268D01*
X743040Y569995D01*
Y596004D01*
X736768Y589732D01*
X733232Y593268D01*
X739504Y599540D01*
X727000D01*
X726960Y599540D01*
X725000Y599637D01*
Y627500D01*
X715000Y637500D01*
Y671250D01*
X719448Y673474D01*
X720633Y671830D01*
X719768Y670965D01*
X718446Y668676D01*
X717762Y666123D01*
Y663479D01*
X717968Y662712D01*
X717940Y662500D01*
X718180Y660673D01*
X718885Y658970D01*
X720008Y657507D01*
X721470Y656385D01*
X723173Y655680D01*
X723622Y655621D01*
X723927Y655445D01*
X726480Y654761D01*
X729124D01*
X731677Y655445D01*
X732910Y656157D01*
X726034Y663033D01*
X729570Y666569D01*
X736446Y659693D01*
X737158Y660926D01*
X737842Y663479D01*
Y665357D01*
X742492Y670007D01*
X772500Y640000D01*
Y410000D01*
X727500D01*
X726848Y409348D01*
X725000Y410113D01*
Y414363D01*
X726960Y414460D01*
X727000Y414460D01*
X739504D01*
X733232Y420732D01*
X736768Y424268D01*
X743040Y417995D01*
Y442004D01*
X736768Y435732D01*
X733232Y439268D01*
X739504Y445540D01*
X727000D01*
X726960Y445540D01*
X725000Y445637D01*
Y490000D01*
X605000Y490000D01*
Y445636D01*
X603040Y445540D01*
X603000Y445540D01*
X590495D01*
X596767Y439268D01*
X593232Y435732D01*
X586960Y442005D01*
Y417995D01*
X593232Y424268D01*
X596767Y420732D01*
X590495Y414460D01*
X603000D01*
X603040Y414460D01*
X605000Y414364D01*
Y407500D01*
X522500D01*
Y369540D01*
X511496D01*
X518768Y362268D01*
X516500Y360000D01*
X518768Y357732D01*
X511496Y350460D01*
X522500D01*
Y334540D01*
X511496D01*
X518768Y327268D01*
X516500Y325000D01*
X518768Y322732D01*
X511496Y315460D01*
X522500D01*
Y307500D01*
X332500D01*
X350000Y290000D01*
Y243637D01*
X348040Y243540D01*
X348000Y243540D01*
X335496D01*
X341768Y237268D01*
X338232Y233732D01*
X331960Y240005D01*
Y215996D01*
X338232Y222268D01*
X341768Y218732D01*
X335496Y212460D01*
X348000D01*
X348040Y212460D01*
X350000Y212363D01*
Y205000D01*
X280000D01*
Y605000D01*
X332500Y657500D01*
Y677500D01*
X360000D01*
Y465000D01*
D02*
G37*
G36*
X575000Y267500D02*
X567500Y260000D01*
X495000D01*
Y295000D01*
X502500Y302500D01*
X527500D01*
Y315460D01*
X538504D01*
X531232Y322732D01*
X533500Y325000D01*
X531232Y327268D01*
X538504Y334540D01*
X527500D01*
Y350460D01*
X538504D01*
X531232Y357732D01*
X533500Y360000D01*
X531232Y362268D01*
X538504Y369540D01*
X527500D01*
Y377500D01*
X575000D01*
Y267500D01*
D02*
G37*
%LPC*%
G36*
X518635Y545140D02*
X515965D01*
X513386Y544449D01*
X512118Y543717D01*
X517300Y538535D01*
X522482Y543717D01*
X521214Y544449D01*
X518635Y545140D01*
D02*
G37*
G36*
X508583Y540182D02*
X507851Y538914D01*
X507160Y536335D01*
Y533665D01*
X507851Y531086D01*
X508583Y529818D01*
X513764Y535000D01*
X508583Y540182D01*
D02*
G37*
G36*
X526017D02*
X520835Y535000D01*
X526017Y529818D01*
X526749Y531086D01*
X527440Y533665D01*
Y536335D01*
X526749Y538914D01*
X526017Y540182D01*
D02*
G37*
G36*
X517300Y531465D02*
X512118Y526283D01*
X513386Y525551D01*
X515965Y524860D01*
X518635D01*
X521214Y525551D01*
X522482Y526283D01*
X517300Y531465D01*
D02*
G37*
G36*
X520960Y496004D02*
Y483996D01*
X526964Y490000D01*
X520960Y496004D01*
D02*
G37*
G36*
Y456004D02*
Y443996D01*
X526964Y450000D01*
X520960Y456004D01*
D02*
G37*
G36*
X348124Y674841D02*
X345480D01*
X342927Y674157D01*
X341694Y673445D01*
X346802Y668336D01*
X351910Y673445D01*
X350677Y674157D01*
X348124Y674841D01*
D02*
G37*
G36*
X355446Y669909D02*
X350337Y664801D01*
X355446Y659693D01*
X356158Y660926D01*
X356842Y663479D01*
Y666123D01*
X356158Y668676D01*
X355446Y669909D01*
D02*
G37*
G36*
X338158Y669909D02*
X337446Y668676D01*
X336762Y666123D01*
Y663479D01*
X337446Y660926D01*
X338158Y659693D01*
X343266Y664801D01*
X338158Y669909D01*
D02*
G37*
G36*
X346802Y661265D02*
X341694Y656157D01*
X342927Y655445D01*
X345480Y654761D01*
X348124D01*
X350677Y655445D01*
X351910Y656157D01*
X346802Y661265D01*
D02*
G37*
G36*
X555040Y496004D02*
X549035Y490000D01*
X555040Y483996D01*
Y496004D01*
D02*
G37*
G36*
Y456004D02*
X549036Y450000D01*
X555040Y443996D01*
Y456004D01*
D02*
G37*
G36*
X507960Y366004D02*
Y353996D01*
X513965Y360000D01*
X507960Y366004D01*
D02*
G37*
G36*
Y331004D02*
Y318995D01*
X513965Y325000D01*
X507960Y331004D01*
D02*
G37*
G36*
X324505Y245540D02*
X315496D01*
X320000Y241035D01*
X324505Y245540D01*
D02*
G37*
G36*
X328040Y242005D02*
X321768Y235732D01*
X320000Y237500D01*
X318232Y235732D01*
X311960Y242005D01*
Y215996D01*
X318232Y222268D01*
X320000Y220500D01*
X321768Y222268D01*
X328040Y215996D01*
Y242005D01*
D02*
G37*
G36*
X320000Y216964D02*
X315496Y212460D01*
X324505D01*
X320000Y216964D01*
D02*
G37*
G36*
X542040Y366004D02*
X536035Y360000D01*
X542040Y353996D01*
Y366004D01*
D02*
G37*
G36*
Y331004D02*
X536035Y325000D01*
X542040Y318995D01*
Y331004D01*
D02*
G37*
G36*
X526335Y282840D02*
X523665D01*
X521086Y282149D01*
X519818Y281417D01*
X525000Y276236D01*
X530182Y281417D01*
X528914Y282149D01*
X526335Y282840D01*
D02*
G37*
G36*
X533717Y277882D02*
X528535Y272700D01*
X533717Y267518D01*
X534449Y268786D01*
X535140Y271365D01*
Y274035D01*
X534449Y276614D01*
X533717Y277882D01*
D02*
G37*
G36*
X516283Y277882D02*
X515551Y276614D01*
X514860Y274035D01*
Y271365D01*
X515551Y268786D01*
X516283Y267518D01*
X521465Y272700D01*
X516283Y277882D01*
D02*
G37*
G36*
X525000Y269164D02*
X519818Y263983D01*
X521086Y263251D01*
X523665Y262560D01*
X526335D01*
X528914Y263251D01*
X530182Y263983D01*
X525000Y269164D01*
D02*
G37*
%LPD*%
D14*
X345661Y665942D02*
X346802Y664801D01*
D15*
X546000Y490000D02*
D03*
X530000D02*
D03*
X517000Y360000D02*
D03*
X533000D02*
D03*
X517000Y325000D02*
D03*
X533000D02*
D03*
X546000Y450000D02*
D03*
X530000D02*
D03*
D16*
X735000Y583000D02*
D03*
X320000Y229000D02*
D03*
D17*
X715000Y584000D02*
D03*
X695000D02*
D03*
X675000D02*
D03*
X654999D02*
D03*
X635000D02*
D03*
X615000D02*
D03*
X595000D02*
D03*
Y430000D02*
D03*
X615000D02*
D03*
X635000D02*
D03*
X654999D02*
D03*
X675000D02*
D03*
X695000D02*
D03*
X715000D02*
D03*
X735000D02*
D03*
X320000Y382000D02*
D03*
X340000D02*
D03*
X360000D02*
D03*
X380000D02*
D03*
X400000D02*
D03*
X420000D02*
D03*
X440000D02*
D03*
X460000D02*
D03*
Y228000D02*
D03*
X440000D02*
D03*
X420000D02*
D03*
X400000D02*
D03*
X380000D02*
D03*
X360000D02*
D03*
X340000D02*
D03*
D28*
X436250Y631250D02*
Y672071D01*
X380000Y205000D02*
Y230000D01*
X397500Y187500D02*
X462500D01*
X393125Y191875D02*
X397500Y187500D01*
X393125Y191875D02*
Y191875D01*
X384375Y200625D02*
X393125Y191875D01*
X380000Y205000D02*
X384375Y200625D01*
X384375D01*
X400000Y207500D02*
X405000Y202500D01*
X400000Y207500D02*
Y232500D01*
X405000Y202500D02*
X500000D01*
X550000Y613999D02*
X600802Y664801D01*
X550000Y565000D02*
Y613999D01*
X675000Y584000D02*
Y587500D01*
X565000Y550000D02*
X669571D01*
X550000Y565000D02*
X565000Y550000D01*
X570000Y608599D02*
X626202Y664801D01*
X570000Y567929D02*
Y608599D01*
Y567929D02*
X572929Y565000D01*
X643500D01*
X669571Y550000D02*
X675000Y555429D01*
Y584000D01*
X643500Y565000D02*
X655000Y576500D01*
Y587500D01*
X626779Y385000D02*
X631779Y380000D01*
X709571D01*
X715000Y385429D01*
X625000Y385000D02*
X626779D01*
X715000Y385429D02*
Y430000D01*
X661027Y396473D02*
X671027D01*
X654999Y402500D02*
X661027Y396473D01*
X671027D02*
X672500Y395000D01*
X654999Y402500D02*
Y422500D01*
X662500Y457500D02*
X663973Y456027D01*
X669048D01*
X674575Y430425D02*
Y450500D01*
X669048Y456027D02*
X674575Y450500D01*
X645000Y472500D02*
X680344D01*
X695000Y457844D01*
X674575Y430425D02*
X675000Y430000D01*
X695000Y427500D02*
Y457844D01*
X697500Y617500D02*
Y639477D01*
X677251Y617749D02*
X677500Y617500D01*
X677251Y617749D02*
Y664552D01*
X677002Y664801D02*
X677251Y664552D01*
X664952Y669722D02*
X673431Y678201D01*
X664952Y661181D02*
Y669722D01*
X655000Y651228D02*
X664952Y661181D01*
X655000Y617500D02*
Y651228D01*
X639602Y661230D02*
Y674602D01*
X632500Y617500D02*
Y654128D01*
X639602Y661230D01*
Y674602D02*
X643201Y678201D01*
X690000Y646976D02*
X697500Y639477D01*
X690000Y646976D02*
Y669369D01*
X698831Y678201D01*
X400000Y385000D02*
Y405000D01*
X425000Y430000D01*
Y555000D01*
X477500Y607500D01*
Y617699D01*
X524602Y664801D01*
X382500Y387500D02*
Y407500D01*
X380000Y385000D02*
X382500Y387500D01*
Y407500D02*
X410000Y435000D01*
Y560000D01*
X462500Y612500D01*
Y628099D01*
X499202Y664801D01*
X360000Y387500D02*
Y407500D01*
X395000Y442500D01*
X377500Y447500D02*
Y572500D01*
X525000Y690599D02*
Y692500D01*
X340000Y410000D02*
X377500Y447500D01*
X524602Y690201D02*
X525000Y690599D01*
X395000Y442500D02*
Y567500D01*
X450944Y623444D01*
Y641943D02*
X473802Y664801D01*
X450944Y623444D02*
Y641943D01*
X377500Y572500D02*
X436250Y631250D01*
X512602Y678201D02*
X524602Y690201D01*
X442380Y678201D02*
X512602D01*
X436250Y672071D02*
X442380Y678201D01*
X698831D02*
X713096D01*
X725096Y690201D01*
X643201Y678201D02*
X663532D01*
X675532Y690201D01*
X677002D01*
X673431Y678201D02*
X688932D01*
X700932Y690201D01*
X702402D01*
X725096D02*
X727802D01*
X340000Y382000D02*
Y410000D01*
D29*
X360000Y228000D02*
X360500Y228500D01*
Y243553D01*
X366358Y249411D02*
X522889D01*
X525000Y247300D01*
X360500Y243553D02*
X366358Y249411D01*
X675000Y535000D02*
X695000Y555000D01*
X542700Y535000D02*
X675000D01*
X695000Y555000D02*
Y584000D01*
X667455Y704701D02*
X733808D01*
X725000Y662500D02*
X742302Y679802D01*
X635299Y704701D02*
X650701Y689299D01*
X742302Y679802D02*
Y696207D01*
X652955Y690201D02*
X667455Y704701D01*
X651602Y690201D02*
X652955D01*
X733808Y704701D02*
X742302Y696207D01*
X616655Y704701D02*
X635299D01*
X602155Y690201D02*
X616655Y704701D01*
X600802Y690201D02*
X602155D01*
X584949Y704701D02*
X599650Y690000D01*
X489655Y704701D02*
X584949D01*
X475155Y690201D02*
X489655Y704701D01*
X473802Y690201D02*
X475155D01*
X457500Y707500D02*
X472667Y692333D01*
X414901Y707500D02*
X457500D01*
X397602Y690201D02*
X414901Y707500D01*
X377803Y710000D02*
X397602Y690201D01*
X315801Y710000D02*
X377803D01*
X296002Y690201D02*
X315801Y710000D01*
D30*
X245202Y664801D02*
D03*
D31*
Y690201D02*
D03*
X270602Y664801D02*
D03*
Y690201D02*
D03*
X296002Y664801D02*
D03*
Y690201D02*
D03*
X321402Y664801D02*
D03*
Y690201D02*
D03*
X346802Y664801D02*
D03*
Y690201D02*
D03*
X372202Y664801D02*
D03*
Y690201D02*
D03*
X397602Y664801D02*
D03*
Y690201D02*
D03*
X423002Y664801D02*
D03*
Y690201D02*
D03*
X448402Y664801D02*
D03*
Y690201D02*
D03*
X473802Y664801D02*
D03*
Y690201D02*
D03*
X499202Y664801D02*
D03*
Y690201D02*
D03*
X524602Y664801D02*
D03*
Y690201D02*
D03*
X550002Y664801D02*
D03*
Y690201D02*
D03*
X575402Y664801D02*
D03*
Y690201D02*
D03*
X600802Y664801D02*
D03*
Y690201D02*
D03*
X626202Y664801D02*
D03*
Y690201D02*
D03*
X727802D02*
D03*
Y664801D02*
D03*
X702402Y690201D02*
D03*
Y664801D02*
D03*
X677002Y690201D02*
D03*
Y664801D02*
D03*
X651602Y690201D02*
D03*
Y664801D02*
D03*
D32*
X525000Y247300D02*
D03*
D33*
Y272700D02*
D03*
X517300Y535000D02*
D03*
D34*
X542700D02*
D03*
D35*
X780000Y200000D02*
D03*
Y690000D02*
D03*
X200000Y200000D02*
D03*
Y690000D02*
D03*
D36*
X462500Y187500D02*
D03*
X500000Y202500D02*
D03*
X625000Y385000D02*
D03*
X672500Y395000D02*
D03*
X662500Y457500D02*
D03*
X645000Y472500D02*
D03*
X697500Y617500D02*
D03*
X677500D02*
D03*
X655000D02*
D03*
X632500D02*
D03*
M02*
