G04*
G04 #@! TF.GenerationSoftware,Altium Limited,Altium Designer,24.10.1 (45)*
G04*
G04 Layer_Color=255*
%FSLAX44Y44*%
%MOMM*%
G71*
G04*
G04 #@! TF.SameCoordinates,18B26EA7-4F74-4CB2-AD54-755A6D8BF582*
G04*
G04*
G04 #@! TF.FilePolarity,Positive*
G04*
G01*
G75*
%ADD15R,1.3000X1.4000*%
%ADD16R,1.1000X2.8000*%
%ADD17R,1.1000X2.6000*%
%ADD30R,1.5000X1.5000*%
%ADD31C,1.5000*%
G04:AMPARAMS|DCode=32|XSize=1.52mm|YSize=1.52mm|CornerRadius=0.38mm|HoleSize=0mm|Usage=FLASHONLY|Rotation=90.000|XOffset=0mm|YOffset=0mm|HoleType=Round|Shape=RoundedRectangle|*
%AMROUNDEDRECTD32*
21,1,1.5200,0.7600,0,0,90.0*
21,1,0.7600,1.5200,0,0,90.0*
1,1,0.7600,0.3800,0.3800*
1,1,0.7600,0.3800,-0.3800*
1,1,0.7600,-0.3800,-0.3800*
1,1,0.7600,-0.3800,0.3800*
%
%ADD32ROUNDEDRECTD32*%
%ADD33C,1.5200*%
G04:AMPARAMS|DCode=34|XSize=1.52mm|YSize=1.52mm|CornerRadius=0.38mm|HoleSize=0mm|Usage=FLASHONLY|Rotation=180.000|XOffset=0mm|YOffset=0mm|HoleType=Round|Shape=RoundedRectangle|*
%AMROUNDEDRECTD34*
21,1,1.5200,0.7600,0,0,180.0*
21,1,0.7600,1.5200,0,0,180.0*
1,1,0.7600,-0.3800,0.3800*
1,1,0.7600,0.3800,0.3800*
1,1,0.7600,0.3800,-0.3800*
1,1,0.7600,-0.3800,-0.3800*
%
%ADD34ROUNDEDRECTD34*%
%ADD35C,6.0000*%
D15*
X546000Y490000D02*
D03*
X530000D02*
D03*
X517000Y360000D02*
D03*
X533000D02*
D03*
X517000Y325000D02*
D03*
X533000D02*
D03*
X546000Y450000D02*
D03*
X530000D02*
D03*
D16*
X735000Y583000D02*
D03*
X320000Y229000D02*
D03*
D17*
X715000Y584000D02*
D03*
X695000D02*
D03*
X675000D02*
D03*
X654999D02*
D03*
X635000D02*
D03*
X615000D02*
D03*
X595000D02*
D03*
Y430000D02*
D03*
X615000D02*
D03*
X635000D02*
D03*
X654999D02*
D03*
X675000D02*
D03*
X695000D02*
D03*
X715000D02*
D03*
X735000D02*
D03*
X320000Y382000D02*
D03*
X340000D02*
D03*
X360000D02*
D03*
X380000D02*
D03*
X400000D02*
D03*
X420000D02*
D03*
X440000D02*
D03*
X460000D02*
D03*
Y228000D02*
D03*
X440000D02*
D03*
X420000D02*
D03*
X400000D02*
D03*
X380000D02*
D03*
X360000D02*
D03*
X340000D02*
D03*
D30*
X245202Y664801D02*
D03*
D31*
Y690201D02*
D03*
X270602Y664801D02*
D03*
Y690201D02*
D03*
X296002Y664801D02*
D03*
Y690201D02*
D03*
X321402Y664801D02*
D03*
Y690201D02*
D03*
X346802Y664801D02*
D03*
Y690201D02*
D03*
X372202Y664801D02*
D03*
Y690201D02*
D03*
X397602Y664801D02*
D03*
Y690201D02*
D03*
X423002Y664801D02*
D03*
Y690201D02*
D03*
X448402Y664801D02*
D03*
Y690201D02*
D03*
X473802Y664801D02*
D03*
Y690201D02*
D03*
X499202Y664801D02*
D03*
Y690201D02*
D03*
X524602Y664801D02*
D03*
Y690201D02*
D03*
X550002Y664801D02*
D03*
Y690201D02*
D03*
X575402Y664801D02*
D03*
Y690201D02*
D03*
X600802Y664801D02*
D03*
Y690201D02*
D03*
X626202Y664801D02*
D03*
Y690201D02*
D03*
X727802D02*
D03*
Y664801D02*
D03*
X702402Y690201D02*
D03*
Y664801D02*
D03*
X677002Y690201D02*
D03*
Y664801D02*
D03*
X651602Y690201D02*
D03*
Y664801D02*
D03*
D32*
X525000Y247300D02*
D03*
D33*
Y272700D02*
D03*
X517300Y535000D02*
D03*
D34*
X542700D02*
D03*
D35*
X780000Y200000D02*
D03*
Y690000D02*
D03*
X200000Y200000D02*
D03*
Y690000D02*
D03*
M02*
