M48
;Layer_Color=9474304
;FILE_FORMAT=4:4
METRIC,LZ
;TYPE=PLATED
T01F00S00C0.7112
T02F00S00C0.9000
T03F00S00C1.0200
T04F00S00C2.7500
%
T01
X004625Y001875
X005Y002025
X00625Y00385
X006725Y00395
X006625Y004575
X00645Y004725
X00655Y006175
X006775
X006975
X006325
T02
X00397602Y00664801
Y00690201
X00423002
Y00664801
X00448402
Y00690201
X00473802
Y00664801
X00499202
Y00690201
X00524602
Y00664801
X00550002
Y00690201
X00575402
Y00664801
X00600802
Y00690201
X00626202
Y00664801
X00651602
X00677002
X00702402
X00727802
Y00690201
X00702402
X00677002
X00651602
X00372202
X00346802
X00321402
X00296002
X00270602
X00245202
Y00664801
X00270602
X00296002
X00321402
X00346802
X00372202
T03
X00525Y002473
Y002727
X005173Y00535
X005427
T04
X002Y002
X0078
Y0069
X002
M30
