G04*
G04 #@! TF.GenerationSoftware,Altium Limited,Altium Designer,24.10.1 (45)*
G04*
G04 Layer_Color=32896*
%FSLAX44Y44*%
%MOMM*%
G71*
G04*
G04 #@! TF.SameCoordinates,18B26EA7-4F74-4CB2-AD54-755A6D8BF582*
G04*
G04*
G04 #@! TF.FilePolarity,Positive*
G04*
G01*
G75*
%ADD12C,0.2000*%
%ADD37C,0.1000*%
D12*
X741772Y652101D02*
Y702901D01*
X232502Y652101D02*
Y702901D01*
X741772D01*
X232502Y652101D02*
X741772D01*
D37*
X736500Y185165D02*
Y180166D01*
X734001D01*
X733168Y180999D01*
Y184331D01*
X734001Y185165D01*
X736500D01*
X729003Y180166D02*
X730669D01*
X731502Y180999D01*
Y182665D01*
X730669Y183498D01*
X729003D01*
X728169Y182665D01*
Y181832D01*
X731502D01*
X726503Y180166D02*
X724004D01*
X723171Y180999D01*
X724004Y181832D01*
X725670D01*
X726503Y182665D01*
X725670Y183498D01*
X723171D01*
X721505Y180166D02*
X719839D01*
X720672D01*
Y183498D01*
X721505D01*
X715674Y178500D02*
X714840D01*
X714007Y179333D01*
Y183498D01*
X716507D01*
X717340Y182665D01*
Y180999D01*
X716507Y180166D01*
X714007D01*
X712341D02*
Y183498D01*
X709842D01*
X709009Y182665D01*
Y180166D01*
X702345Y185165D02*
Y180166D01*
X699845D01*
X699012Y180999D01*
Y181832D01*
Y182665D01*
X699845Y183498D01*
X702345D01*
X697346D02*
Y180999D01*
X696513Y180166D01*
X694014D01*
Y179333D01*
X694847Y178500D01*
X695680D01*
X694014Y180166D02*
Y183498D01*
X687349Y185165D02*
Y180166D01*
X684850D01*
X684017Y180999D01*
Y184331D01*
X684850Y185165D01*
X687349D01*
X682351Y180166D02*
X680685D01*
X681518D01*
Y183498D01*
X682351D01*
X678186Y180166D02*
Y183498D01*
X675686D01*
X674854Y182665D01*
Y180166D01*
X673187D02*
X671521D01*
X672354D01*
Y183498D01*
X673187D01*
X668189Y184331D02*
Y183498D01*
X669022D01*
X667356D01*
X668189D01*
Y180999D01*
X667356Y180166D01*
X664857Y185165D02*
Y180166D01*
Y182665D01*
X664024Y183498D01*
X662357D01*
X661525Y182665D01*
Y180166D01*
X654860Y185165D02*
Y180166D01*
X653194Y181832D01*
X651528Y180166D01*
Y185165D01*
X649028Y183498D02*
X647362D01*
X646529Y182665D01*
Y180166D01*
X649028D01*
X649862Y180999D01*
X649028Y181832D01*
X646529D01*
X644863Y180166D02*
Y183498D01*
X642364D01*
X641531Y182665D01*
Y180166D01*
X639865D02*
Y183498D01*
X637366D01*
X636533Y182665D01*
Y180166D01*
X634866D02*
X633200D01*
X634034D01*
Y183498D01*
X634866D01*
X629868D02*
X628202D01*
X627369Y182665D01*
Y180166D01*
X629868D01*
X630701Y180999D01*
X629868Y181832D01*
X627369D01*
X625703Y183498D02*
Y180166D01*
Y181832D01*
X624870Y182665D01*
X624037Y183498D01*
X623204D01*
X619871D02*
X618205D01*
X617372Y182665D01*
Y180166D01*
X619871D01*
X620704Y180999D01*
X619871Y181832D01*
X617372D01*
X612374Y183498D02*
X614873D01*
X615706Y182665D01*
Y180999D01*
X614873Y180166D01*
X612374D01*
X610708Y185165D02*
Y180166D01*
Y182665D01*
X609875Y183498D01*
X608209D01*
X607375Y182665D01*
Y180166D01*
X605709D02*
X604043D01*
X604876D01*
Y183498D01*
X605709D01*
M02*
