G04*
G04 #@! TF.GenerationSoftware,Altium Limited,Altium Designer,24.10.1 (45)*
G04*
G04 Layer_Color=8388736*
%FSLAX44Y44*%
%MOMM*%
G71*
G04*
G04 #@! TF.SameCoordinates,18B26EA7-4F74-4CB2-AD54-755A6D8BF582*
G04*
G04*
G04 #@! TF.FilePolarity,Negative*
G04*
G01*
G75*
%ADD18R,1.5032X1.6032*%
%ADD19R,1.3032X3.0032*%
%ADD20R,1.3032X2.8032*%
%ADD21R,1.7032X1.7032*%
%ADD22C,1.7032*%
G04:AMPARAMS|DCode=23|XSize=1.7232mm|YSize=1.7232mm|CornerRadius=0.4816mm|HoleSize=0mm|Usage=FLASHONLY|Rotation=90.000|XOffset=0mm|YOffset=0mm|HoleType=Round|Shape=RoundedRectangle|*
%AMROUNDEDRECTD23*
21,1,1.7232,0.7600,0,0,90.0*
21,1,0.7600,1.7232,0,0,90.0*
1,1,0.9632,0.3800,0.3800*
1,1,0.9632,0.3800,-0.3800*
1,1,0.9632,-0.3800,-0.3800*
1,1,0.9632,-0.3800,0.3800*
%
%ADD23ROUNDEDRECTD23*%
%ADD24C,1.7232*%
G04:AMPARAMS|DCode=25|XSize=1.7232mm|YSize=1.7232mm|CornerRadius=0.4816mm|HoleSize=0mm|Usage=FLASHONLY|Rotation=180.000|XOffset=0mm|YOffset=0mm|HoleType=Round|Shape=RoundedRectangle|*
%AMROUNDEDRECTD25*
21,1,1.7232,0.7600,0,0,180.0*
21,1,0.7600,1.7232,0,0,180.0*
1,1,0.9632,-0.3800,0.3800*
1,1,0.9632,0.3800,0.3800*
1,1,0.9632,0.3800,-0.3800*
1,1,0.9632,-0.3800,-0.3800*
%
%ADD25ROUNDEDRECTD25*%
%ADD26C,6.2032*%
%ADD27C,1.4732*%
D18*
X546000Y490000D02*
D03*
X530000D02*
D03*
X517000Y360000D02*
D03*
X533000D02*
D03*
X517000Y325000D02*
D03*
X533000D02*
D03*
X546000Y450000D02*
D03*
X530000D02*
D03*
D19*
X735000Y583000D02*
D03*
X320000Y229000D02*
D03*
D20*
X715000Y584000D02*
D03*
X695000D02*
D03*
X675000D02*
D03*
X654999D02*
D03*
X635000D02*
D03*
X615000D02*
D03*
X595000D02*
D03*
Y430000D02*
D03*
X615000D02*
D03*
X635000D02*
D03*
X654999D02*
D03*
X675000D02*
D03*
X695000D02*
D03*
X715000D02*
D03*
X735000D02*
D03*
X320000Y382000D02*
D03*
X340000D02*
D03*
X360000D02*
D03*
X380000D02*
D03*
X400000D02*
D03*
X420000D02*
D03*
X440000D02*
D03*
X460000D02*
D03*
Y228000D02*
D03*
X440000D02*
D03*
X420000D02*
D03*
X400000D02*
D03*
X380000D02*
D03*
X360000D02*
D03*
X340000D02*
D03*
D21*
X245202Y664801D02*
D03*
D22*
Y690201D02*
D03*
X270602Y664801D02*
D03*
Y690201D02*
D03*
X296002Y664801D02*
D03*
Y690201D02*
D03*
X321402Y664801D02*
D03*
Y690201D02*
D03*
X346802Y664801D02*
D03*
Y690201D02*
D03*
X372202Y664801D02*
D03*
Y690201D02*
D03*
X397602Y664801D02*
D03*
Y690201D02*
D03*
X423002Y664801D02*
D03*
Y690201D02*
D03*
X448402Y664801D02*
D03*
Y690201D02*
D03*
X473802Y664801D02*
D03*
Y690201D02*
D03*
X499202Y664801D02*
D03*
Y690201D02*
D03*
X524602Y664801D02*
D03*
Y690201D02*
D03*
X550002Y664801D02*
D03*
Y690201D02*
D03*
X575402Y664801D02*
D03*
Y690201D02*
D03*
X600802Y664801D02*
D03*
Y690201D02*
D03*
X626202Y664801D02*
D03*
Y690201D02*
D03*
X727802D02*
D03*
Y664801D02*
D03*
X702402Y690201D02*
D03*
Y664801D02*
D03*
X677002Y690201D02*
D03*
Y664801D02*
D03*
X651602Y690201D02*
D03*
Y664801D02*
D03*
D23*
X525000Y247300D02*
D03*
D24*
Y272700D02*
D03*
X517300Y535000D02*
D03*
D25*
X542700D02*
D03*
D26*
X780000Y200000D02*
D03*
Y690000D02*
D03*
X200000Y200000D02*
D03*
Y690000D02*
D03*
D27*
X462500Y187500D02*
D03*
X500000Y202500D02*
D03*
X625000Y385000D02*
D03*
X672500Y395000D02*
D03*
X662500Y457500D02*
D03*
X645000Y472500D02*
D03*
X697500Y617500D02*
D03*
X677500D02*
D03*
X655000D02*
D03*
X632500D02*
D03*
M02*
