G04*
G04 #@! TF.GenerationSoftware,Altium Limited,Altium Designer,24.10.1 (45)*
G04*
G04 Layer_Color=128*
%FSLAX44Y44*%
%MOMM*%
G71*
G04*
G04 #@! TF.SameCoordinates,18B26EA7-4F74-4CB2-AD54-755A6D8BF582*
G04*
G04*
G04 #@! TF.FilePolarity,Positive*
G04*
G01*
G75*
%ADD39C,0.1270*%
D39*
X240702Y664801D02*
X249702D01*
X245202Y660301D02*
Y669301D01*
X240702Y690201D02*
X249702D01*
X245202Y685701D02*
Y694701D01*
X266102Y664801D02*
X275102D01*
X270602Y660301D02*
Y669301D01*
X266102Y690201D02*
X275102D01*
X270602Y685701D02*
Y694701D01*
X291502Y664801D02*
X300502D01*
X296002Y660301D02*
Y669301D01*
X291502Y690201D02*
X300502D01*
X296002Y685701D02*
Y694701D01*
X316902Y664801D02*
X325902D01*
X321402Y660301D02*
Y669301D01*
X316902Y690201D02*
X325902D01*
X321402Y685701D02*
Y694701D01*
X342302Y664801D02*
X351302D01*
X346802Y660301D02*
Y669301D01*
X342302Y690201D02*
X351302D01*
X346802Y685701D02*
Y694701D01*
X367702Y664801D02*
X376702D01*
X372202Y660301D02*
Y669301D01*
X367702Y690201D02*
X376702D01*
X372202Y685701D02*
Y694701D01*
X393102Y664801D02*
X402102D01*
X397602Y660301D02*
Y669301D01*
X393102Y690201D02*
X402102D01*
X397602Y685701D02*
Y694701D01*
X418502Y664801D02*
X427502D01*
X423002Y660301D02*
Y669301D01*
X418502Y690201D02*
X427502D01*
X423002Y685701D02*
Y694701D01*
X443902Y664801D02*
X452902D01*
X448402Y660301D02*
Y669301D01*
X443902Y690201D02*
X452902D01*
X448402Y685701D02*
Y694701D01*
X469302Y664801D02*
X478302D01*
X473802Y660301D02*
Y669301D01*
X469302Y690201D02*
X478302D01*
X473802Y685701D02*
Y694701D01*
X494702Y664801D02*
X503702D01*
X499202Y660301D02*
Y669301D01*
X494702Y690201D02*
X503702D01*
X499202Y685701D02*
Y694701D01*
X520102Y664801D02*
X529102D01*
X524602Y660301D02*
Y669301D01*
X520102Y690201D02*
X529102D01*
X524602Y685701D02*
Y694701D01*
X545502Y664801D02*
X554502D01*
X550002Y660301D02*
Y669301D01*
X545502Y690201D02*
X554502D01*
X550002Y685701D02*
Y694701D01*
X570902Y664801D02*
X579902D01*
X575402Y660301D02*
Y669301D01*
X570902Y690201D02*
X579902D01*
X575402Y685701D02*
Y694701D01*
X596302Y664801D02*
X605302D01*
X600802Y660301D02*
Y669301D01*
X596302Y690201D02*
X605302D01*
X600802Y685701D02*
Y694701D01*
X621702Y664801D02*
X630702D01*
X626202Y660301D02*
Y669301D01*
X621702Y690201D02*
X630702D01*
X626202Y685701D02*
Y694701D01*
X723302Y690201D02*
X732302D01*
X727802Y685701D02*
Y694701D01*
X723302Y664801D02*
X732302D01*
X727802Y660301D02*
Y669301D01*
X697902Y690201D02*
X706902D01*
X702402Y685701D02*
Y694701D01*
X697902Y664801D02*
X706902D01*
X702402Y660301D02*
Y669301D01*
X672502Y690201D02*
X681502D01*
X677002Y685701D02*
Y694701D01*
X672502Y664801D02*
X681502D01*
X677002Y660301D02*
Y669301D01*
X647102Y690201D02*
X656102D01*
X651602Y685701D02*
Y694701D01*
X647102Y664801D02*
X656102D01*
X651602Y660301D02*
Y669301D01*
X519900Y247300D02*
X530100D01*
X525000Y242200D02*
Y252400D01*
X519900Y272700D02*
X530100D01*
X525000Y267600D02*
Y277800D01*
X537600Y535000D02*
X547800D01*
X542700Y529900D02*
Y540100D01*
X512200Y535000D02*
X522400D01*
X517300Y529900D02*
Y540100D01*
X766250Y200000D02*
X793750D01*
X780000Y186250D02*
Y213750D01*
X766250Y690000D02*
X793750D01*
X780000Y676250D02*
Y703750D01*
X186250Y200000D02*
X213750D01*
X200000Y186250D02*
Y213750D01*
X186250Y690000D02*
X213750D01*
X200000Y676250D02*
Y703750D01*
X458944Y187500D02*
X466056D01*
X462500Y183944D02*
Y191056D01*
X496444Y202500D02*
X503556D01*
X500000Y198944D02*
Y206056D01*
X621444Y385000D02*
X628556D01*
X625000Y381444D02*
Y388556D01*
X668944Y395000D02*
X676056D01*
X672500Y391444D02*
Y398556D01*
X658944Y457500D02*
X666056D01*
X662500Y453944D02*
Y461056D01*
X641444Y472500D02*
X648556D01*
X645000Y468944D02*
Y476056D01*
X693944Y617500D02*
X701056D01*
X697500Y613944D02*
Y621056D01*
X673944Y617500D02*
X681056D01*
X677500Y613944D02*
Y621056D01*
X651444Y617500D02*
X658556D01*
X655000Y613944D02*
Y621056D01*
X628944Y617500D02*
X636056D01*
X632500Y613944D02*
Y621056D01*
M02*
