G04*
G04 #@! TF.GenerationSoftware,Altium Limited,Altium Designer,24.10.1 (45)*
G04*
G04 Layer_Color=32768*
%FSLAX44Y44*%
%MOMM*%
G71*
G04*
G04 #@! TF.SameCoordinates,18B26EA7-4F74-4CB2-AD54-755A6D8BF582*
G04*
G04*
G04 #@! TF.FilePolarity,Positive*
G04*
G01*
G75*
%ADD37C,0.1000*%
%ADD38C,0.0500*%
D37*
X533000Y490000D02*
X543000D01*
X538000Y485000D02*
Y495000D01*
X520000Y360000D02*
X530000D01*
X525000Y355000D02*
Y365000D01*
X520000Y325000D02*
X530000D01*
X525000Y320000D02*
Y330000D01*
X533000Y450000D02*
X543000D01*
X538000Y445000D02*
Y455000D01*
D38*
X509500Y228850D02*
X540500D01*
Y291150D01*
X509500D02*
X540500D01*
X509500Y228850D02*
Y291150D01*
X561150Y519500D02*
Y550500D01*
X498850D02*
X561150D01*
X498850Y519500D02*
Y550500D01*
Y519500D02*
X561150D01*
X555000Y480500D02*
Y499500D01*
X521000Y480500D02*
Y499500D01*
Y480500D02*
X555000D01*
X521000Y499500D02*
X555000D01*
X508000Y350500D02*
Y369500D01*
X542000Y350500D02*
Y369500D01*
X508000D02*
X542000D01*
X508000Y350500D02*
X542000D01*
X508000Y315500D02*
Y334500D01*
X542000Y315500D02*
Y334500D01*
X508000D02*
X542000D01*
X508000Y315500D02*
X542000D01*
X752500Y414500D02*
Y599500D01*
X577500Y414500D02*
X752500D01*
X577500D02*
Y599500D01*
X752500D01*
X555000Y440500D02*
Y459500D01*
X521000Y440500D02*
Y459500D01*
Y440500D02*
X555000D01*
X521000Y459500D02*
X555000D01*
X302500Y212500D02*
X477500D01*
Y397500D01*
X302500D02*
X477500D01*
X302500Y212500D02*
Y397500D01*
M02*
