**ABCDEFGHIJKLMNOPQRSTUVWXYZabcdefghijklmnopqrstuvwxyz**************************
**PARASOLID !"#$%&'()*+,-./:;<=>?@[\]^_`{|}~0123456789**************************
**PART1;
MC=AMD64;
MC_MODEL=Intel64 Family 6 Model 165 Stepping 5, GenuineIntel;
MC_ID=unknown;
OS=Windows_NT;
OS_RELEASE=unknown;
FRU=Parasolid Version 31.1, build 290,  3- 9-2020;
APPL=SOLIDWORKS 2020-2020196;
SITE=;
USER=unknown;
FORMAT=text;
GUISE=transmit;
KEY=makeProjectedPlanarWire;
FILE=makeProjectedPlanarWire.x_t;
DATE=Sun Oct 27 22:48:45 2024;
**PART2;
SCH=SCH_3101290_31100;
USFLD_SIZE=0;
**PART3;
**END_OF_HEADER*****************************************************************
T51 : TRANSMIT FILE created by modeller version 310129023 SCH_3101290_31100_1300
6222 0 12 34 CCCCCCI4 mesh1006 0 I8 polyline1008 0 CCCCCCCDI5 owner1040 0 CCCCCC
I13 boundary_mesh1006 0 I17 boundary_polyline1008 0 CCCA16 index_map_offset0 0 1
 dA9 index_map82 0 A17 node_id_index_map82 0 A20 schema_embedding_map82 0 A5 chi
ld12 0 A14 lowest_node_id0 0 1 dA16 mesh_offset_data206 0 Z1 44 0 2 0 0 0 0 0 0
 1e3 1e-8 0 3 0 1 0 3 1 4 5 6 7 0 0 8 9 10 0 0 0 0 0 0 0 70 11 CI9 list_type0 0
 1 uI10 notransmit0 0 1 lCCCDCCDI12 finger_index0 0 1 dI12 finger_block1012 0 CZ
2 0 4 T1 0 0 1 20 1 11 11 13 255 4 41 0 1 0 12 0 0 8 12 50 255 5 3 0 12 0 0 0 +0
 0 0 0 1 0 0 0 1 30 255 6 22 0 9 13 0 0 +-.0286861465103741 0 .01533316879709815
 1 0 0 29 255 7 34 0 10 14 0 -.0286861465103741 0 .01533316879709815 19 8 CCCCCC
CA5 owner12 0 Z8 40 0 1 0 0 4 V0 16 255 9 20 0 ?15 0 16 6 0 0 1 18 255 10 32 0 1
7 0 18 7 ?1 17 255 17 0 0 0 0 10 19 20 0 21 +18 18 29 0 22 10 23 14 ?1 17 22 0 2
4 21 25 18 26 16 0 15 -18 23 26 0 25 18 27 28 ?1 29 14 31 0 18 28 7 .03731385348
96259 0 .01533316879709815 29 28 28 0 23 29 14 .0373138534896259 0 -.02266683120
290185 29 29 25 0 27 0 28 -.0286861465103741 0 -.02266683120290185 18 27 23 0 19
 23 0 29 ?1 17 19 0 24 25 21 27 17 20 0 30 -15 255 24 7 0 19 12 0 17 25 0 24 22
 19 23 30 31 0 26 -17 21 0 24 19 22 10 15 9 0 0 -16 20 11 0 ?17 31 32 33 0 0 1 1
7 30 0 0 0 0 27 25 31 0 0 +16 31 14 0 ?30 16 20 34 0 0 1 16 16 17 0 ?26 9 31 13
 0 0 1 30 34 16 0 31 33 13 0 +-.0286861465103741 0 -.02266683120290185 -1 0 0 30
 33 13 0 20 35 34 0 +-.0286861465103741 0 -.02266683120290185 27390370673318e-29
 0 1 30 13 19 0 16 34 6 0 +.0373138534896259 0 -.02266683120290185 1826024711554
535e-31 0 -1 31 255 35 10 0 32 0 33 0 +.004313853489625895 0 -.00366683120290185
 0 -1 0 0 0 -1 .012 16 32 8 0 ?36 20 0 35 0 0 1 17 36 0 0 0 0 0 37 32 0 0 +17 37
 0 38 37 37 0 36 32 0 0 -15 38 6 0 37 12 24 14 255 12 1 39 ?0 0 38 4 5 -0 0 0 0
 4 81 255 1 39 44 40 12 0 0 0 0 41 80 255 1 40 42 43 9000 1 1 1 1 1 1 1 1 0 FFFF
TFTFFFFFFF1 82 255 1 41 704971664 79 255 14 43 SWEntUnchanged17 26 0 0 0 0 23 22
 16 0 0 +17 15 0 0 0 0 18 21 9 0 0 +74 4 CI16 index_map_offset0 0 1 dCCZ20 11 1
 0 0 39 0 0 0 0 0 0 0 0 0 0 0 0 0 0 0 0 0 0 0 1 0 
